# xmcd
#
# Track frame offsets:
# 150
# 20150
# 41165
# 62828
# 77301
# 96094
# 117025
# 134513
# 156580
# 172969
# 192889
# 204925
# 225191
# 252857
#
# Disc length: 3953 seconds
#
#
# Revision: 0
# Processed by: cddbd v1.5.2PL0 Copyright (c) Steve Scherf et al.
# Submitted via: Nero 7, 11, 10, 0 
#
DISCID=b10f6f0e
DTITLE=AWEK - Burnin' Wire on South Lamar
DYEAR=2007
DGENRE=Blues
TTITLE0=Don't Call Me Sugar
TTITLE1=Kiki
TTITLE2=I Ain't Gonna Do
TTITLE3=Four Times
TTITLE4=Can't Get Enough
TTITLE5=Come Back Baby
TTITLE6=Girl Is The Devil
TTITLE7=You Don't Have To Go
TTITLE8=Easy Money
TTITLE9=You Take It Easy
TTITLE10=I'll Pay Your Trainfare
TTITLE11=Yes Sir Yes Sir
TTITLE12=Don't Know Much About Love
TTITLE13=Big Leg Woman
EXTD=
EXTT0=Don't Call Me Sugar
EXTT1=Kiki
EXTT2=I Ain't Gonna Do
EXTT3=Four Times
EXTT4=Can't Get Enough
EXTT5=Come Back Baby
EXTT6=Girl Is The Devil
EXTT7=You Don't Have To Go
EXTT8=Easy Money
EXTT9=You Take It Easy
EXTT10=I'll Pay Your Trainfare
EXTT11=Yes Sir Yes Sir
EXTT12=Don't Know Much About Love
EXTT13=Big Leg Woman
PLAYORDER=
